<svg width="15" height="13" viewBox="0 0 15 13" fill="none" xmlns="http://www.w3.org/2000/svg">
<g id="&#235;&#167;&#144;&#237;&#146;&#141;&#236;&#132;&#160;">
<path id="&#235;&#167;&#144;&#237;&#146;&#141;&#236;&#132;&#160;&#237;&#133;&#140;&#235;&#145;&#144;&#235;&#166;&#172;" d="M13.6567 6.21993C13.6591 7.04654 13.4423 7.86198 13.0238 8.59981C12.5277 9.48397 11.765 10.2276 10.8212 10.7475C9.87735 11.2674 8.78964 11.543 7.67991 11.5434C6.75184 11.5455 5.83633 11.3524 5.00794 10.9797L1 12.1696L2.33598 8.59981C1.91756 7.86198 1.70073 7.04654 1.70315 6.21993C1.70358 5.2315 2.01296 4.26269 2.59665 3.42203C3.18034 2.58137 4.01528 1.90205 5.00794 1.46016C5.83633 1.08748 6.75184 0.894347 7.67991 0.896502H8.03148C9.49708 0.96852 10.8814 1.51951 11.9193 2.44396C12.9572 3.36842 13.5758 4.60139 13.6567 5.90679V6.21993Z" fill="#FFF27E" stroke="#4B2A0B" stroke-width="1.5" stroke-linecap="round" stroke-linejoin="round"/>
<path id="&#236;&#160;&#144;3" d="M10.4911 6.53318C10.7407 6.53318 10.9431 6.32288 10.9431 6.06346C10.9431 5.80405 10.7407 5.59375 10.4911 5.59375C10.2414 5.59375 10.0391 5.80405 10.0391 6.06346C10.0391 6.32288 10.2414 6.53318 10.4911 6.53318Z" fill="#4B2A0B" stroke="#4B2A0B" stroke-width="0.5" stroke-linecap="round" stroke-linejoin="round"/>
<path id="&#236;&#160;&#144;2" d="M7.78015 6.53318C8.0298 6.53318 8.23217 6.32288 8.23217 6.06346C8.23217 5.80405 8.0298 5.59375 7.78015 5.59375C7.5305 5.59375 7.32812 5.80405 7.32812 6.06346C7.32812 6.32288 7.5305 6.53318 7.78015 6.53318Z" fill="#4B2A0B" stroke="#4B2A0B" stroke-width="0.5" stroke-linecap="round" stroke-linejoin="round"/>
<path id="&#236;&#160;&#144;1" d="M5.0614 6.53318C5.31105 6.53318 5.51342 6.32288 5.51342 6.06346C5.51342 5.80405 5.31105 5.59375 5.0614 5.59375C4.81175 5.59375 4.60938 5.80405 4.60938 6.06346C4.60938 6.32288 4.81175 6.53318 5.0614 6.53318Z" fill="#4B2A0B" stroke="#4B2A0B" stroke-width="0.5" stroke-linecap="round" stroke-linejoin="round"/>
</g>
</svg>
