<svg width="38" height="36" viewBox="0 0 38 36" fill="none" xmlns="http://www.w3.org/2000/svg">
<g id="folder-plus">
<path id="Vector" d="M34.8307 28.5C34.8307 29.2956 34.4971 30.0587 33.9032 30.6213C33.3094 31.1839 32.5039 31.5 31.6641 31.5H6.33073C5.49088 31.5 4.68542 31.1839 4.09156 30.6213C3.49769 30.0587 3.16406 29.2956 3.16406 28.5V7.5C3.16406 6.70435 3.49769 5.94129 4.09156 5.37868C4.68542 4.81607 5.49088 4.5 6.33073 4.5H14.2474L17.4141 9H31.6641C32.5039 9 33.3094 9.31607 33.9032 9.87868C34.4971 10.4413 34.8307 11.2044 34.8307 12V28.5Z" stroke="#4B2A0B" stroke-width="2.5" stroke-linecap="round" stroke-linejoin="round"/>
<path id="Vector_2" d="M19 16.5V25.5" stroke="#4B2A0B" stroke-width="2.5" stroke-linecap="round" stroke-linejoin="round"/>
<path id="Vector_3" d="M14.25 21H23.75" stroke="#4B2A0B" stroke-width="2.5" stroke-linecap="round" stroke-linejoin="round"/>
</g>
</svg>
