<svg width="43" height="34" viewBox="0 0 43 34" fill="none" xmlns="http://www.w3.org/2000/svg">
<g id="image">
<path id="Vector" d="M34.0417 4.25H8.95833C6.97931 4.25 5.375 5.51853 5.375 7.08333V26.9167C5.375 28.4815 6.97931 29.75 8.95833 29.75H34.0417C36.0207 29.75 37.625 28.4815 37.625 26.9167V7.08333C37.625 5.51853 36.0207 4.25 34.0417 4.25Z" stroke="#4B2A0B" stroke-width="2.5" stroke-linecap="round" stroke-linejoin="round"/>
<path id="Vector_2" d="M15.0391 15.2305C16.4198 15.2305 17.5391 14.0412 17.5391 12.5742C17.5391 11.1072 16.4198 9.91797 15.0391 9.91797C13.6584 9.91797 12.5391 11.1072 12.5391 12.5742C12.5391 14.0412 13.6584 15.2305 15.0391 15.2305Z" stroke="#4B2A0B" stroke-width="2.5" stroke-linecap="round" stroke-linejoin="round"/>
<path id="Vector_3" d="M37.6276 21.2493L28.6693 14.166L8.96094 29.7493" stroke="#4B2A0B" stroke-width="2.5" stroke-linecap="round" stroke-linejoin="round"/>
</g>
</svg>
