<svg width="31" height="32" viewBox="0 0 31 32" fill="none" xmlns="http://www.w3.org/2000/svg">
<g id="link">
<path id="Vector" d="M12.9141 17.3339C13.4688 18.0994 14.1765 18.7328 14.9892 19.1912C15.8019 19.6495 16.7006 19.9221 17.6243 19.9904C18.548 20.0587 19.4752 19.9211 20.3429 19.587C21.2106 19.2529 21.9985 18.73 22.6532 18.0539L26.5282 14.0539C27.7047 12.7966 28.3556 11.1126 28.3409 9.3646C28.3262 7.61662 27.647 5.94453 26.4496 4.70848C25.2521 3.47243 23.6323 2.7713 21.9389 2.75611C20.2456 2.74092 18.6142 3.41288 17.3961 4.62727L15.1745 6.90727" stroke="#4B2A0B" stroke-width="2.5" stroke-linecap="round" stroke-linejoin="round"/>
<path id="Vector_2" d="M18.0833 14.6676C17.5286 13.9021 16.8209 13.2687 16.0082 12.8104C15.1955 12.352 14.2968 12.0795 13.3731 12.0112C12.4494 11.9429 11.5222 12.0805 10.6545 12.4146C9.78684 12.7487 8.99891 13.2715 8.34418 13.9476L4.46918 17.9476C3.29274 19.205 2.64178 20.889 2.65649 22.637C2.67121 24.3849 3.35042 26.057 4.54785 27.2931C5.74528 28.5291 7.36511 29.2303 9.05846 29.2454C10.7518 29.2606 12.3832 28.5887 13.6013 27.3743L15.81 25.0943" stroke="#4B2A0B" stroke-width="2.5" stroke-linecap="round" stroke-linejoin="round"/>
</g>
</svg>
