<svg width="28" height="36" viewBox="0 0 28 36" fill="none" xmlns="http://www.w3.org/2000/svg">
<g id="Group 20">
<path id="Vector" d="M23.5124 13.2949H4.39168C2.8831 13.2949 1.66016 14.9716 1.66016 17.0399V30.1472C1.66016 32.2155 2.8831 33.8921 4.39168 33.8921H23.5124C25.021 33.8921 26.2439 32.2155 26.2439 30.1472V17.0399C26.2439 14.9716 25.021 13.2949 23.5124 13.2949Z" stroke="#4B2A0B" stroke-width="3" stroke-linecap="round" stroke-linejoin="round"/>
<path id="Vector_2" d="M8.67969 12.6308V7.90601C8.67969 6.33964 9.2347 4.83742 10.2226 3.72983C11.2106 2.62224 12.5505 2 13.9476 2C15.3448 2 16.6847 2.62224 17.6726 3.72983C18.6606 4.83742 19.2156 6.33964 19.2156 7.90601V12.6308" stroke="#4B2A0B" stroke-width="3" stroke-linecap="round" stroke-linejoin="round"/>
</g>
</svg>
