<svg width="17" height="16" viewBox="0 0 17 16" fill="none" xmlns="http://www.w3.org/2000/svg">
<path id="Vector" d="M7.69531 2.4339C8.06345 1.69544 9.11709 1.69544 9.48523 2.43391L10.8083 5.08792C10.9546 5.38139 11.2355 5.58449 11.56 5.63146L14.5039 6.05752C15.3269 6.17663 15.6535 7.18975 15.0549 7.76701L12.9389 9.80768C12.7002 10.0379 12.5912 10.3714 12.6478 10.6982L13.1487 13.5898C13.2899 14.4055 12.4357 15.0298 11.7015 14.6475L9.05212 13.2679C8.76266 13.1172 8.41787 13.1172 8.12842 13.2679L5.47905 14.6475C4.74485 15.0298 3.8906 14.4055 4.03188 13.5898L4.53277 10.6982C4.58936 10.3714 4.48031 10.0379 4.24162 9.80768L2.12564 7.767C1.52708 7.18975 1.8536 6.17663 2.67659 6.05752L5.62051 5.63146C5.94505 5.58449 6.22593 5.38139 6.37224 5.08792L7.69531 2.4339Z" fill="#FFE500" stroke="#4B2A0B" stroke-width="2" stroke-linecap="round" stroke-linejoin="round"/>
</svg>
